HIERARCHY
ROOT Hips
{
	OFFSET 0.000000 100.481300 0.000000
	CHANNELS 6 Xposition Yposition Zposition Xrotation Yrotation Zrotation
	JOINT Spine
	{
		OFFSET -0.279200 12.230698 -2.892100
		CHANNELS 3 Xrotation Yrotation Zrotation
		JOINT Spine1
		{
			OFFSET -0.325700 14.269203 -3.374200
			CHANNELS 3 Xrotation Yrotation Zrotation
			JOINT Spine2
			{
				OFFSET -0.372300 16.307602 -0.352600
				CHANNELS 3 Xrotation Yrotation Zrotation
				JOINT Neck
				{
					OFFSET -0.418800 17.814194 8.416900
					CHANNELS 3 Xrotation Yrotation Zrotation
					JOINT Head
					{
						OFFSET 0.000000 7.031097 3.806800
						CHANNELS 3 Xrotation Yrotation Zrotation
						JOINT HeadTop_End
						{
							OFFSET 0.000000 24.646606 12.978600
							CHANNELS 3 Xrotation Yrotation Zrotation
							End Site
							{
								OFFSET 0.000000 27.854965 0.000000
							}
						}
					}
				}
				JOINT LeftShoulder
				{
					OFFSET 16.952999 14.495407 -7.737500
					CHANNELS 3 Xrotation Yrotation Zrotation
					JOINT LeftArm
					{
						OFFSET 9.308998 -2.777710 0.208600
						CHANNELS 3 Xrotation Yrotation Zrotation
						JOINT LeftForeArm
						{
							OFFSET 29.972298 0.000000 0.000000
							CHANNELS 3 Xrotation Yrotation Zrotation
							JOINT LeftHand
							{
								OFFSET 26.026505 0.000000 0.000000
								CHANNELS 3 Xrotation Yrotation Zrotation
								JOINT LeftHandThumb1
								{
									OFFSET 12.240501 -7.147949 9.207150
									CHANNELS 3 Xrotation Yrotation Zrotation
									JOINT LeftHandThumb2
									{
										OFFSET 4.138618 -2.389435 2.389433
										CHANNELS 3 Xrotation Yrotation Zrotation
										JOINT LeftHandThumb3
										{
											OFFSET 2.726913 -1.574387 1.574386
											CHANNELS 3 Xrotation Yrotation Zrotation
											JOINT LeftHandThumb4
											{
												OFFSET 3.941010 -2.275345 2.275342
												CHANNELS 3 Xrotation Yrotation Zrotation
												End Site
												{
													OFFSET -0.005798 5.087799 0.009903
												}
											}
										}
									}
								}
								JOINT LeftHandIndex1
								{
									OFFSET 24.424698 -1.985611 5.953459
									CHANNELS 3 Xrotation Yrotation Zrotation
									JOINT LeftHandIndex2
									{
										OFFSET 6.426697 0.000000 0.000000
										CHANNELS 3 Xrotation Yrotation Zrotation
										JOINT LeftHandIndex3
										{
											OFFSET 5.337898 0.000000 0.000000
											CHANNELS 3 Xrotation Yrotation Zrotation
											JOINT LeftHandIndex4
											{
												OFFSET 4.409401 0.000000 0.000000
												CHANNELS 3 Xrotation Yrotation Zrotation
												End Site
												{
													OFFSET 0.000000 4.409363 0.014373
												}
											}
										}
									}
								}
								JOINT LeftHandMiddle1
								{
									OFFSET 23.810104 0.000000 0.000000
									CHANNELS 3 Xrotation Yrotation Zrotation
									JOINT LeftHandMiddle2
									{
										OFFSET 7.176498 0.000000 0.000000
										CHANNELS 3 Xrotation Yrotation Zrotation
										JOINT LeftHandMiddle3
										{
											OFFSET 6.774902 0.000000 0.000000
											CHANNELS 3 Xrotation Yrotation Zrotation
											JOINT LeftHandMiddle4
											{
												OFFSET 5.403328 0.000000 0.000000
												CHANNELS 3 Xrotation Yrotation Zrotation
												End Site
												{
													OFFSET -0.027702 5.403244 0.017414
												}
											}
										}
									}
								}
								JOINT LeftHandRing1
								{
									OFFSET 22.908401 -0.839279 -6.020567
									CHANNELS 3 Xrotation Yrotation Zrotation
									JOINT LeftHandRing2
									{
										OFFSET 6.337502 0.000000 0.000000
										CHANNELS 3 Xrotation Yrotation Zrotation
										JOINT LeftHandRing3
										{
											OFFSET 5.779297 0.000000 0.000000
											CHANNELS 3 Xrotation Yrotation Zrotation
											JOINT LeftHandRing4
											{
												OFFSET 4.965698 0.000000 0.000000
												CHANNELS 3 Xrotation Yrotation Zrotation
												End Site
												{
													OFFSET 0.000000 4.965668 0.016186
												}
											}
										}
									}
								}
								JOINT LeftHandPinky1
								{
									OFFSET 20.037003 -1.530319 -10.950146
									CHANNELS 3 Xrotation Yrotation Zrotation
									JOINT LeftHandPinky2
									{
										OFFSET 5.254700 0.000000 0.000000
										CHANNELS 3 Xrotation Yrotation Zrotation
										JOINT LeftHandPinky3
										{
											OFFSET 4.810204 0.000000 0.000000
											CHANNELS 3 Xrotation Yrotation Zrotation
											JOINT LeftHandPinky4
											{
												OFFSET 3.647202 0.000000 0.000000
												CHANNELS 3 Xrotation Yrotation Zrotation
												End Site
												{
													OFFSET 0.000000 3.647186 0.011889
												}
											}
										}
									}
								}
							}
						}
					}
				}
				JOINT RightShoulder
				{
					OFFSET -15.141001 14.495407 -7.737500
					CHANNELS 3 Xrotation Yrotation Zrotation
					JOINT RightArm
					{
						OFFSET -9.308998 -2.777710 0.208500
						CHANNELS 3 Xrotation Yrotation Zrotation
						JOINT RightForeArm
						{
							OFFSET -29.972300 0.000000 0.000000
							CHANNELS 3 Xrotation Yrotation Zrotation
							JOINT RightHand
							{
								OFFSET -26.026505 0.000000 0.000000
								CHANNELS 3 Xrotation Yrotation Zrotation
								JOINT RightHandThumb1
								{
									OFFSET -12.240601 -7.148026 9.207092
									CHANNELS 3 Xrotation Yrotation Zrotation
									JOINT RightHandThumb2
									{
										OFFSET -4.138618 -2.389435 2.389433
										CHANNELS 3 Xrotation Yrotation Zrotation
										JOINT RightHandThumb3
										{
											OFFSET -2.726974 -1.574417 1.574421
											CHANNELS 3 Xrotation Yrotation Zrotation
											JOINT RightHandThumb4
											{
												OFFSET -3.941010 -2.275345 2.275343
												CHANNELS 3 Xrotation Yrotation Zrotation
												End Site
												{
													OFFSET 0.005814 5.087799 0.009927
												}
											}
										}
									}
								}
								JOINT RightHandIndex1
								{
									OFFSET -24.424698 -1.985657 5.953444
									CHANNELS 3 Xrotation Yrotation Zrotation
									JOINT RightHandIndex2
									{
										OFFSET -6.426697 0.000000 0.000000
										CHANNELS 3 Xrotation Yrotation Zrotation
										JOINT RightHandIndex3
										{
											OFFSET -5.337898 0.000000 0.000000
											CHANNELS 3 Xrotation Yrotation Zrotation
											JOINT RightHandIndex4
											{
												OFFSET -4.409401 0.000000 0.000000
												CHANNELS 3 Xrotation Yrotation Zrotation
												End Site
												{
													OFFSET 0.000000 4.409363 0.014408
												}
											}
										}
									}
								}
								JOINT RightHandMiddle1
								{
									OFFSET -23.810097 0.000000 0.000000
									CHANNELS 3 Xrotation Yrotation Zrotation
									JOINT RightHandMiddle2
									{
										OFFSET -7.176498 0.000000 0.000000
										CHANNELS 3 Xrotation Yrotation Zrotation
										JOINT RightHandMiddle3
										{
											OFFSET -6.774902 0.000000 0.000000
											CHANNELS 3 Xrotation Yrotation Zrotation
											JOINT RightHandMiddle4
											{
												OFFSET -5.403328 0.000000 0.000000
												CHANNELS 3 Xrotation Yrotation Zrotation
												End Site
												{
													OFFSET 0.027702 5.403244 0.017457
												}
											}
										}
									}
								}
								JOINT RightHandRing1
								{
									OFFSET -22.908302 -0.839325 -6.020576
									CHANNELS 3 Xrotation Yrotation Zrotation
									JOINT RightHandRing2
									{
										OFFSET -6.337502 0.000000 0.000000
										CHANNELS 3 Xrotation Yrotation Zrotation
										JOINT RightHandRing3
										{
											OFFSET -5.779297 0.000000 0.000000
											CHANNELS 3 Xrotation Yrotation Zrotation
											JOINT RightHandRing4
											{
												OFFSET -4.965698 0.000000 0.000000
												CHANNELS 3 Xrotation Yrotation Zrotation
												End Site
												{
													OFFSET 0.000000 4.965668 0.016226
												}
											}
										}
									}
								}
								JOINT RightHandPinky1
								{
									OFFSET -20.037003 -1.530334 -10.950259
									CHANNELS 3 Xrotation Yrotation Zrotation
									JOINT RightHandPinky2
									{
										OFFSET -5.254700 0.000000 0.000000
										CHANNELS 3 Xrotation Yrotation Zrotation
										JOINT RightHandPinky3
										{
											OFFSET -4.810204 0.000000 0.000000
											CHANNELS 3 Xrotation Yrotation Zrotation
											JOINT RightHandPinky4
											{
												OFFSET -3.647202 0.000000 0.000000
												CHANNELS 3 Xrotation Yrotation Zrotation
												End Site
												{
													OFFSET 0.000000 3.647186 0.011917
												}
											}
										}
									}
								}
							}
						}
					}
				}
			}
		}
	}
	JOINT LeftUpLeg
	{
		OFFSET 15.427100 -6.655098 0.678600
		CHANNELS 3 Xrotation Yrotation Zrotation
		JOINT LeftLeg
		{
			OFFSET 4.081073 -39.591068 13.024000
			CHANNELS 3 Xrotation Yrotation Zrotation
			JOINT LeftFoot
			{
				OFFSET -4.081074 -37.707932 -15.979700
				CHANNELS 3 Xrotation Yrotation Zrotation
				JOINT LeftToeBase
				{
					OFFSET 5.346399 -15.068900 20.645000
					CHANNELS 3 Xrotation Yrotation Zrotation
					JOINT LeftToe_End
					{
						OFFSET 2.754700 0.931300 11.300900
						CHANNELS 3 Xrotation Yrotation Zrotation
						End Site
						{
							OFFSET 0.000000 11.669021 0.000000
						}
					}
				}
			}
		}
	}
	JOINT RightUpLeg
	{
		OFFSET -15.569500 -6.655098 0.678600
		CHANNELS 3 Xrotation Yrotation Zrotation
		JOINT RightLeg
		{
			OFFSET -4.081825 -39.591045 13.023800
			CHANNELS 3 Xrotation Yrotation Zrotation
			JOINT RightFoot
			{
				OFFSET 4.081824 -37.707954 -15.979600
				CHANNELS 3 Xrotation Yrotation Zrotation
				JOINT RightToeBase
				{
					OFFSET -5.346400 -15.068900 20.645000
					CHANNELS 3 Xrotation Yrotation Zrotation
					JOINT RightToe_End
					{
						OFFSET -2.754700 0.931300 11.300900
						CHANNELS 3 Xrotation Yrotation Zrotation
						End Site
						{
							OFFSET 0.000000 11.669021 0.000000
						}
					}
				}
			}
		}
	}
}
MOTION
Frames: 4
Frame Time: 0.033333
0.406591 83.759598 0.140894 -4.288810 -71.858781 -6.003534 14.068066 -1.982000 -0.079394 6.921696 -1.120599 -0.052270 6.922369 -1.120181 -0.025584 -0.600147 1.129582 -0.306611 1.427928 54.315635 -12.676851 -0.000000 -0.000000 -0.000001 0.670862 -9.573297 -7.836312 -20.358789 -70.786721 -52.797933 0.000009 -49.447561 -0.000001 -20.609614 -12.023766 29.742691 12.918564 -14.352075 3.766706 -7.464505 38.549772 4.014232 2.520114 25.042660 25.644403 -0.000001 0.000006 -0.000001 -0.003128 3.517069 -25.047009 5.392028 5.833082 -85.492344 1.138947 3.472494 -36.309094 0.000002 0.000000 -0.000000 1.040749 5.695710 -26.426391 4.731310 5.743279 -78.948101 1.665173 4.091834 -44.273795 -0.000002 0.000000 -0.000001 0.502464 4.733749 -31.731792 5.174286 5.811921 -83.346538 1.678795 4.105699 -44.464101 0.000001 -0.000000 0.000000 -0.296972 3.719408 -35.394146 4.771154 5.750891 -79.345898 0.921026 3.155021 -32.540213 0.000002 -0.000000 0.000000 0.570121 12.786696 9.786627 -20.702032 13.088253 47.751396 -0.002082 87.356309 0.002122 -37.275436 5.514404 -3.713270 11.465405 24.105619 10.468511 -4.963138 -36.723762 -15.281992 3.614958 -37.001860 -26.660556 -0.000001 0.000003 -0.000000 -4.243267 -1.792194 55.650155 2.182805 -3.946728 57.878313 1.337696 -3.268356 44.507678 -0.000000 -0.000000 -0.000001 -0.401999 -4.272624 53.100947 2.281449 -4.006787 59.300488 1.784729 -3.667351 51.887868 0.000000 0.000000 -0.000000 1.038806 -5.285608 50.092915 2.441017 -4.097109 61.558439 1.928804 -3.775726 54.107703 0.000000 0.000000 -0.000000 3.552057 -7.249821 52.615577 1.453445 -3.381923 46.503411 1.796579 -3.676634 52.073509 0.000000 0.000000 0.000000 -27.615935 17.086087 34.646760 35.445400 1.375360 -0.408998 -4.682458 3.412995 -20.499442 -0.420624 -0.000016 0.000004 0.000000 -0.000002 -0.000000 -28.429259 -8.870819 -21.328179 33.769108 9.296891 -5.469802 -9.811972 1.603493 23.118288 -0.366109 -0.000026 0.000002 0.000000 -0.000000 -0.000000 
0.394359 83.941925 0.203716 -3.950596 -71.894810 -5.720573 13.846609 -1.903752 -0.015401 6.821330 -1.079078 -0.023303 6.821924 -1.077953 0.001836 -0.589474 1.122113 -0.302576 1.518884 54.207339 -12.493764 0.000002 -0.000001 0.000000 0.684155 -9.448233 -7.552385 -21.252777 -71.044144 -53.911120 -0.000014 -49.466515 -0.000010 -20.875384 -11.915670 29.712467 12.918569 -14.352077 3.766705 -7.464507 38.549776 4.014237 2.520115 25.042656 25.644398 0.000000 -0.000000 -0.000001 -0.003127 3.517069 -25.047011 5.392028 5.833081 -85.492344 1.138947 3.472496 -36.309098 -0.000001 0.000000 -0.000000 1.040748 5.695713 -26.426391 4.731312 5.743282 -78.948101 1.665174 4.091830 -44.273798 -0.000001 0.000001 -0.000001 0.502467 4.733751 -31.731795 5.174287 5.811921 -83.346538 1.678795 4.105698 -44.464094 -0.000000 -0.000000 0.000000 -0.296971 3.719409 -35.394146 4.771152 5.750890 -79.345898 0.921023 3.155021 -32.540210 0.000002 -0.000000 -0.000000 0.612671 12.604241 9.262733 -20.466155 12.874568 48.058290 -0.000934 87.538839 0.000983 -37.614084 5.484370 -3.752181 11.465401 24.105619 10.468508 -4.963142 -36.723762 -15.281995 3.614959 -37.001857 -26.660554 -0.000000 0.000001 -0.000001 -4.243268 -1.792194 55.650158 2.182804 -3.946728 57.878306 1.337696 -3.268357 44.507678 0.000000 -0.000000 -0.000000 -0.401999 -4.272624 53.100947 2.281447 -4.006787 59.300495 1.784728 -3.667351 51.887861 0.000000 0.000000 0.000001 1.038805 -5.285608 50.092915 2.441017 -4.097109 61.558439 1.928805 -3.775727 54.107700 0.000000 0.000000 -0.000000 3.552057 -7.249820 52.615580 1.453445 -3.381922 46.503411 1.796578 -3.676634 52.073516 -0.000001 -0.000001 -0.000000 -27.425796 17.055279 34.511399 35.143728 1.604677 -0.414617 -4.603144 3.405289 -20.531354 -0.418159 0.000003 -0.000003 -0.000000 -0.000002 -0.000000 -28.240201 -8.883015 -21.193210 33.323800 9.276376 -5.477861 -9.737488 1.601435 23.054603 -0.208459 0.000020 0.000002 -0.000000 -0.000000 0.000000 
0.380697 84.117516 0.258762 -3.635451 -71.926270 -5.449568 13.647605 -1.845311 0.043962 6.730321 -1.045531 0.005150 6.730882 -1.043536 0.028748 -0.580752 1.114017 -0.298768 1.548145 54.090785 -12.261347 0.000000 -0.000002 0.000001 0.696882 -9.365619 -7.285063 -22.369462 -71.036146 -55.286830 -0.000030 -49.567144 -0.000029 -20.941464 -11.727247 29.593355 12.918567 -14.352078 3.766707 -7.464502 38.549769 4.014231 2.520117 25.042656 25.644398 -0.000001 0.000003 -0.000002 -0.003126 3.517069 -25.047011 5.392028 5.833084 -85.492344 1.138947 3.472499 -36.309101 0.000001 0.000000 -0.000000 1.040750 5.695712 -26.426390 4.731310 5.743282 -78.948101 1.665176 4.091829 -44.273795 0.000000 -0.000000 -0.000001 0.502463 4.733748 -31.731792 5.174288 5.811922 -83.346531 1.678794 4.105701 -44.464091 0.000002 -0.000000 0.000000 -0.296972 3.719407 -35.394146 4.771152 5.750890 -79.345891 0.921026 3.155021 -32.540213 -0.000000 -0.000000 -0.000001 0.647463 12.412604 8.814651 -20.324643 12.677624 48.402375 -0.005393 87.709082 0.005440 -37.823402 5.384848 -3.717867 11.465404 24.105618 10.468508 -4.963141 -36.723759 -15.281992 3.614960 -37.001857 -26.660556 -0.000000 0.000002 0.000000 -4.243268 -1.792193 55.650158 2.182805 -3.946729 57.878306 1.337696 -3.268355 44.507678 0.000000 -0.000000 0.000000 -0.402000 -4.272624 53.100947 2.281447 -4.006787 59.300488 1.784728 -3.667351 51.887865 0.000000 -0.000000 -0.000000 1.038806 -5.285607 50.092918 2.441017 -4.097109 61.558439 1.928804 -3.775727 54.107707 -0.000000 0.000000 0.000001 3.552057 -7.249820 52.615577 1.453445 -3.381924 46.503411 1.796578 -3.676634 52.073512 0.000001 -0.000000 0.000000 -27.216371 17.001398 34.356794 34.851532 1.868609 -0.403144 -4.518375 3.402256 -20.587705 -0.405282 0.000021 0.000005 -0.000000 -0.000001 -0.000000 -28.060688 -8.894091 -21.068198 32.903647 9.277228 -5.482247 -9.643743 1.560416 22.995218 -0.093545 0.000012 -0.000004 -0.000000 -0.000000 0.000000 
0.363881 84.289581 0.304733 -3.330910 -71.959820 -5.180852 13.431094 -1.812312 0.112807 6.631733 -1.026368 0.036378 6.632159 -1.024377 0.058645 -0.573875 1.106464 -0.294762 1.578517 53.973801 -12.026837 -0.000000 -0.000000 -0.000000 0.706192 -9.292745 -7.079698 -23.364557 -70.938393 -56.544343 -0.000022 -49.652924 -0.000024 -21.001539 -11.541810 29.423874 12.918565 -14.352080 3.766705 -7.464506 38.549772 4.014231 2.520114 25.042658 25.644408 0.000001 0.000001 -0.000002 -0.003127 3.517070 -25.047014 5.392026 5.833081 -85.492344 1.138948 3.472495 -36.309098 0.000002 0.000000 0.000000 1.040748 5.695711 -26.426388 4.731311 5.743282 -78.948094 1.665169 4.091832 -44.273795 0.000001 -0.000000 -0.000001 0.502464 4.733748 -31.731795 5.174285 5.811922 -83.346538 1.678796 4.105701 -44.464098 0.000001 0.000001 -0.000000 -0.296973 3.719407 -35.394146 4.771151 5.750893 -79.345898 0.921026 3.155019 -32.540210 0.000004 -0.000000 0.000002 0.678288 12.262735 8.404193 -20.198314 12.558956 48.700663 0.002102 87.799992 -0.002088 -37.978471 5.271275 -3.674334 11.465402 24.105618 10.468505 -4.963136 -36.723762 -15.281997 3.614962 -37.001853 -26.660556 -0.000001 0.000002 -0.000001 -4.243267 -1.792193 55.650155 2.182805 -3.946728 57.878313 1.337696 -3.268356 44.507678 0.000000 -0.000000 0.000000 -0.402000 -4.272623 53.100944 2.281447 -4.006787 59.300495 1.784727 -3.667351 51.887861 -0.000000 0.000000 0.000001 1.038805 -5.285608 50.092918 2.441017 -4.097110 61.558439 1.928805 -3.775726 54.107700 -0.000000 0.000000 -0.000001 3.552057 -7.249820 52.615580 1.453446 -3.381924 46.503411 1.796579 -3.676634 52.073509 -0.000000 -0.000000 0.000000 -26.999120 16.945192 34.196773 34.559972 2.152983 -0.380287 -4.423107 3.403118 -20.660737 -0.381605 -0.000012 0.000001 -0.000000 -0.000001 -0.000000 -27.903698 -8.907539 -20.977352 32.499300 9.275538 -5.464967 -9.480151 1.498958 23.013134 -0.104126 -0.000024 0.000000 0.000000 -0.000001 0.000000 
